<mxfile host="app.diagrams.net" modified="2021-11-02T05:00:08.027Z" agent="5.0 (Windows NT 10.0; Win64; x64) AppleWebKit/537.36 (KHTML, like Gecko) Chrome/95.0.4638.69 Safari/537.36" etag="SYnFVB6Y0Qx4Dpw5WnJO" version="15.6.5" type="github">
  <diagram id="C5RBs43oDa-KdzZeNtuy" name="Page-1">
    <mxGraphModel dx="1422" dy="762" grid="1" gridSize="10" guides="1" tooltips="1" connect="1" arrows="1" fold="1" page="1" pageScale="1" pageWidth="827" pageHeight="1169" math="0" shadow="0">
      <root>
        <mxCell id="WIyWlLk6GJQsqaUBKTNV-0" />
        <mxCell id="WIyWlLk6GJQsqaUBKTNV-1" parent="WIyWlLk6GJQsqaUBKTNV-0" />
        <mxCell id="auTtCLH2IPiy61heuWF4-8" value="&lt;p style=&quot;margin: 0px ; margin-top: 4px ; text-align: center&quot;&gt;&lt;i&gt;Manager&lt;/i&gt;&lt;/p&gt;" style="verticalAlign=top;align=left;overflow=fill;fontSize=12;fontFamily=Helvetica;html=1;fillColor=default;strokeColor=default;fontColor=default;" vertex="1" parent="WIyWlLk6GJQsqaUBKTNV-1">
          <mxGeometry x="150" y="380" width="190" height="140" as="geometry" />
        </mxCell>
        <mxCell id="auTtCLH2IPiy61heuWF4-9" value="&lt;p style=&quot;margin: 0px ; margin-top: 4px ; text-align: center&quot;&gt;&lt;i&gt;Developer&lt;/i&gt;&lt;/p&gt;" style="verticalAlign=top;align=left;overflow=fill;fontSize=12;fontFamily=Helvetica;html=1;fillColor=default;strokeColor=default;fontColor=default;" vertex="1" parent="WIyWlLk6GJQsqaUBKTNV-1">
          <mxGeometry x="500" y="380" width="190" height="140" as="geometry" />
        </mxCell>
        <mxCell id="auTtCLH2IPiy61heuWF4-10" value="" style="endArrow=none;startArrow=none;endFill=0;startFill=0;endSize=8;html=1;verticalAlign=bottom;labelBackgroundColor=none;strokeWidth=3;rounded=0;fontColor=default;fillColor=default;strokeColor=default;" edge="1" parent="WIyWlLk6GJQsqaUBKTNV-1">
          <mxGeometry width="160" relative="1" as="geometry">
            <mxPoint x="340" y="440" as="sourcePoint" />
            <mxPoint x="500" y="440" as="targetPoint" />
          </mxGeometry>
        </mxCell>
        <mxCell id="auTtCLH2IPiy61heuWF4-11" value="* Reports 1" style="text;html=1;strokeColor=default;fillColor=default;align=center;verticalAlign=middle;whiteSpace=wrap;rounded=0;fontColor=default;" vertex="1" parent="WIyWlLk6GJQsqaUBKTNV-1">
          <mxGeometry x="350" y="450" width="130" height="30" as="geometry" />
        </mxCell>
        <mxCell id="auTtCLH2IPiy61heuWF4-12" value="1 Manages *" style="text;html=1;strokeColor=default;fillColor=default;align=center;verticalAlign=middle;whiteSpace=wrap;rounded=0;fontColor=default;" vertex="1" parent="WIyWlLk6GJQsqaUBKTNV-1">
          <mxGeometry x="350" y="400" width="130" height="30" as="geometry" />
        </mxCell>
        <mxCell id="auTtCLH2IPiy61heuWF4-13" value="&lt;p style=&quot;margin: 0px ; margin-top: 4px ; text-align: center&quot;&gt;&lt;i&gt;Employee&lt;/i&gt;&lt;/p&gt;" style="verticalAlign=top;align=left;overflow=fill;fontSize=12;fontFamily=Helvetica;html=1;fillColor=default;strokeColor=default;fontColor=default;" vertex="1" parent="WIyWlLk6GJQsqaUBKTNV-1">
          <mxGeometry x="330" y="130" width="190" height="140" as="geometry" />
        </mxCell>
        <mxCell id="auTtCLH2IPiy61heuWF4-14" value="Extends" style="endArrow=block;endSize=16;endFill=0;html=1;rounded=0;fontColor=default;strokeColor=default;fillColor=default;labelBackgroundColor=default;exitX=0.542;exitY=-0.036;exitDx=0;exitDy=0;exitPerimeter=0;" edge="1" parent="WIyWlLk6GJQsqaUBKTNV-1" source="auTtCLH2IPiy61heuWF4-8">
          <mxGeometry width="160" relative="1" as="geometry">
            <mxPoint x="205" y="300" as="sourcePoint" />
            <mxPoint x="425" y="270" as="targetPoint" />
            <Array as="points" />
          </mxGeometry>
        </mxCell>
        <mxCell id="auTtCLH2IPiy61heuWF4-16" value="Extends" style="endArrow=block;endSize=16;endFill=0;html=1;rounded=0;labelBackgroundColor=default;fontColor=default;strokeColor=default;fillColor=default;entryX=0.5;entryY=1;entryDx=0;entryDy=0;exitX=0.5;exitY=0;exitDx=0;exitDy=0;" edge="1" parent="WIyWlLk6GJQsqaUBKTNV-1" source="auTtCLH2IPiy61heuWF4-9" target="auTtCLH2IPiy61heuWF4-13">
          <mxGeometry width="160" relative="1" as="geometry">
            <mxPoint x="600" y="370" as="sourcePoint" />
            <mxPoint x="620" y="300" as="targetPoint" />
          </mxGeometry>
        </mxCell>
        <mxCell id="auTtCLH2IPiy61heuWF4-20" value="Meeting" style="swimlane;fontStyle=0;childLayout=stackLayout;horizontal=1;startSize=26;fillColor=none;horizontalStack=0;resizeParent=1;resizeParentMax=0;resizeLast=0;collapsible=1;marginBottom=0;fontColor=default;strokeColor=default;" vertex="1" parent="WIyWlLk6GJQsqaUBKTNV-1">
          <mxGeometry x="130" y="880" width="140" height="52" as="geometry" />
        </mxCell>
        <mxCell id="auTtCLH2IPiy61heuWF4-21" value="+ location" style="text;strokeColor=none;fillColor=none;align=left;verticalAlign=top;spacingLeft=4;spacingRight=4;overflow=hidden;rotatable=0;points=[[0,0.5],[1,0.5]];portConstraint=eastwest;fontColor=default;" vertex="1" parent="auTtCLH2IPiy61heuWF4-20">
          <mxGeometry y="26" width="140" height="26" as="geometry" />
        </mxCell>
        <mxCell id="auTtCLH2IPiy61heuWF4-28" value="Office" style="swimlane;fontStyle=0;childLayout=stackLayout;horizontal=1;startSize=26;fillColor=none;horizontalStack=0;resizeParent=1;resizeParentMax=0;resizeLast=0;collapsible=1;marginBottom=0;fontColor=default;strokeColor=default;" vertex="1" parent="WIyWlLk6GJQsqaUBKTNV-1">
          <mxGeometry x="540" y="874" width="140" height="80" as="geometry" />
        </mxCell>
        <mxCell id="auTtCLH2IPiy61heuWF4-29" value="+ location&#xa;+ responsible" style="text;strokeColor=none;fillColor=none;align=left;verticalAlign=top;spacingLeft=4;spacingRight=4;overflow=hidden;rotatable=0;points=[[0,0.5],[1,0.5]];portConstraint=eastwest;fontColor=default;" vertex="1" parent="auTtCLH2IPiy61heuWF4-28">
          <mxGeometry y="26" width="140" height="54" as="geometry" />
        </mxCell>
        <mxCell id="auTtCLH2IPiy61heuWF4-32" value="&lt;&lt;Interface&gt;&gt;&#xa;Room" style="swimlane;fontStyle=0;childLayout=stackLayout;horizontal=1;startSize=26;fillColor=none;horizontalStack=0;resizeParent=1;resizeParentMax=0;resizeLast=0;collapsible=1;marginBottom=0;fontColor=default;strokeColor=default;" vertex="1" parent="WIyWlLk6GJQsqaUBKTNV-1">
          <mxGeometry x="344" y="680" width="140" height="90" as="geometry" />
        </mxCell>
        <mxCell id="auTtCLH2IPiy61heuWF4-33" value="+ allocate()&#xa;+ isfree()" style="text;strokeColor=default;fillColor=none;align=left;verticalAlign=top;spacingLeft=4;spacingRight=4;overflow=hidden;rotatable=0;points=[[0,0.5],[1,0.5]];portConstraint=eastwest;fontColor=default;" vertex="1" parent="auTtCLH2IPiy61heuWF4-32">
          <mxGeometry y="26" width="140" height="64" as="geometry" />
        </mxCell>
        <mxCell id="auTtCLH2IPiy61heuWF4-37" value="" style="edgeStyle=elbowEdgeStyle;html=1;endArrow=block;elbow=vertical;endFill=0;dashed=1;rounded=0;labelBackgroundColor=default;fontColor=default;strokeColor=default;fillColor=default;" edge="1" parent="WIyWlLk6GJQsqaUBKTNV-1" target="auTtCLH2IPiy61heuWF4-33">
          <mxGeometry width="100" height="75" relative="1" as="geometry">
            <mxPoint x="610" y="874" as="sourcePoint" />
            <mxPoint x="710" y="799" as="targetPoint" />
            <Array as="points">
              <mxPoint x="580" y="810" />
              <mxPoint x="530" y="800" />
              <mxPoint x="510" y="821" />
            </Array>
          </mxGeometry>
        </mxCell>
        <mxCell id="auTtCLH2IPiy61heuWF4-36" value="" style="edgeStyle=elbowEdgeStyle;html=1;endArrow=block;elbow=vertical;endFill=0;dashed=1;rounded=0;labelBackgroundColor=default;fontColor=default;strokeColor=default;fillColor=default;entryX=0.471;entryY=1;entryDx=0;entryDy=0;entryPerimeter=0;" edge="1" parent="WIyWlLk6GJQsqaUBKTNV-1" target="auTtCLH2IPiy61heuWF4-33">
          <mxGeometry width="100" height="75" relative="1" as="geometry">
            <mxPoint x="250" y="875" as="sourcePoint" />
            <mxPoint x="350" y="800" as="targetPoint" />
            <Array as="points">
              <mxPoint x="300" y="810" />
            </Array>
          </mxGeometry>
        </mxCell>
        <mxCell id="auTtCLH2IPiy61heuWF4-39" value="Association and Generalization" style="text;strokeColor=none;fillColor=none;html=1;fontSize=24;fontStyle=1;verticalAlign=middle;align=center;fontColor=default;" vertex="1" parent="WIyWlLk6GJQsqaUBKTNV-1">
          <mxGeometry x="210" y="50" width="100" height="40" as="geometry" />
        </mxCell>
        <mxCell id="auTtCLH2IPiy61heuWF4-40" value="Realization" style="text;strokeColor=none;fillColor=none;html=1;fontSize=24;fontStyle=1;verticalAlign=middle;align=center;fontColor=default;" vertex="1" parent="WIyWlLk6GJQsqaUBKTNV-1">
          <mxGeometry x="90" y="610" width="100" height="40" as="geometry" />
        </mxCell>
        <mxCell id="auTtCLH2IPiy61heuWF4-41" value="Employee" style="swimlane;fontStyle=0;childLayout=stackLayout;horizontal=1;startSize=26;fillColor=none;horizontalStack=0;resizeParent=1;resizeParentMax=0;resizeLast=0;collapsible=1;marginBottom=0;fontColor=default;strokeColor=default;" vertex="1" parent="WIyWlLk6GJQsqaUBKTNV-1">
          <mxGeometry x="140" y="1211" width="190" height="52" as="geometry" />
        </mxCell>
        <mxCell id="auTtCLH2IPiy61heuWF4-42" value="+ paid_salary(salary: int): bool" style="text;strokeColor=default;fillColor=none;align=left;verticalAlign=top;spacingLeft=4;spacingRight=4;overflow=hidden;rotatable=0;points=[[0,0.5],[1,0.5]];portConstraint=eastwest;fontColor=default;" vertex="1" parent="auTtCLH2IPiy61heuWF4-41">
          <mxGeometry y="26" width="190" height="26" as="geometry" />
        </mxCell>
        <mxCell id="auTtCLH2IPiy61heuWF4-45" value="Salary" style="swimlane;fontStyle=0;childLayout=stackLayout;horizontal=1;startSize=26;fillColor=none;horizontalStack=0;resizeParent=1;resizeParentMax=0;resizeLast=0;collapsible=1;marginBottom=0;fontColor=default;strokeColor=default;" vertex="1" parent="WIyWlLk6GJQsqaUBKTNV-1">
          <mxGeometry x="550" y="1203" width="140" height="90" as="geometry" />
        </mxCell>
        <mxCell id="auTtCLH2IPiy61heuWF4-46" value="" style="text;strokeColor=default;fillColor=none;align=left;verticalAlign=top;spacingLeft=4;spacingRight=4;overflow=hidden;rotatable=0;points=[[0,0.5],[1,0.5]];portConstraint=eastwest;fontColor=default;" vertex="1" parent="auTtCLH2IPiy61heuWF4-45">
          <mxGeometry y="26" width="140" height="64" as="geometry" />
        </mxCell>
        <mxCell id="auTtCLH2IPiy61heuWF4-50" value="" style="endArrow=open;html=1;rounded=0;align=center;verticalAlign=bottom;dashed=1;endFill=0;labelBackgroundColor=none;fontColor=default;strokeColor=default;fillColor=default;entryX=0;entryY=0.188;entryDx=0;entryDy=0;entryPerimeter=0;" edge="1" parent="WIyWlLk6GJQsqaUBKTNV-1" target="auTtCLH2IPiy61heuWF4-46">
          <mxGeometry relative="1" as="geometry">
            <mxPoint x="330" y="1241" as="sourcePoint" />
            <mxPoint x="450" y="1241" as="targetPoint" />
          </mxGeometry>
        </mxCell>
        <mxCell id="auTtCLH2IPiy61heuWF4-59" value="Workstation" style="swimlane;fontStyle=0;childLayout=stackLayout;horizontal=1;startSize=26;fillColor=none;horizontalStack=0;resizeParent=1;resizeParentMax=0;resizeLast=0;collapsible=1;marginBottom=0;fontColor=default;strokeColor=default;" vertex="1" parent="WIyWlLk6GJQsqaUBKTNV-1">
          <mxGeometry x="374" y="1550" width="140" height="90" as="geometry" />
        </mxCell>
        <mxCell id="auTtCLH2IPiy61heuWF4-60" value="" style="text;strokeColor=default;fillColor=none;align=left;verticalAlign=top;spacingLeft=4;spacingRight=4;overflow=hidden;rotatable=0;points=[[0,0.5],[1,0.5]];portConstraint=eastwest;fontColor=default;" vertex="1" parent="auTtCLH2IPiy61heuWF4-59">
          <mxGeometry y="26" width="140" height="64" as="geometry" />
        </mxCell>
        <mxCell id="auTtCLH2IPiy61heuWF4-64" value="Server" style="swimlane;fontStyle=0;childLayout=stackLayout;horizontal=1;startSize=26;fillColor=none;horizontalStack=0;resizeParent=1;resizeParentMax=0;resizeLast=0;collapsible=1;marginBottom=0;fontColor=default;strokeColor=default;" vertex="1" parent="WIyWlLk6GJQsqaUBKTNV-1">
          <mxGeometry x="210" y="1740" width="140" height="90" as="geometry" />
        </mxCell>
        <mxCell id="auTtCLH2IPiy61heuWF4-66" value="Workers" style="swimlane;fontStyle=0;childLayout=stackLayout;horizontal=1;startSize=26;fillColor=none;horizontalStack=0;resizeParent=1;resizeParentMax=0;resizeLast=0;collapsible=1;marginBottom=0;fontColor=default;strokeColor=default;" vertex="1" parent="WIyWlLk6GJQsqaUBKTNV-1">
          <mxGeometry x="390" y="1740" width="140" height="90" as="geometry" />
        </mxCell>
        <mxCell id="auTtCLH2IPiy61heuWF4-67" value="" style="text;strokeColor=default;fillColor=none;align=left;verticalAlign=top;spacingLeft=4;spacingRight=4;overflow=hidden;rotatable=0;points=[[0,0.5],[1,0.5]];portConstraint=eastwest;fontColor=default;" vertex="1" parent="auTtCLH2IPiy61heuWF4-66">
          <mxGeometry y="26" width="140" height="64" as="geometry" />
        </mxCell>
        <mxCell id="auTtCLH2IPiy61heuWF4-68" value="Control Panel" style="swimlane;fontStyle=0;childLayout=stackLayout;horizontal=1;startSize=26;fillColor=none;horizontalStack=0;resizeParent=1;resizeParentMax=0;resizeLast=0;collapsible=1;marginBottom=0;fontColor=default;strokeColor=default;" vertex="1" parent="WIyWlLk6GJQsqaUBKTNV-1">
          <mxGeometry x="560" y="1740" width="140" height="90" as="geometry" />
        </mxCell>
        <mxCell id="auTtCLH2IPiy61heuWF4-69" value="" style="text;strokeColor=default;fillColor=none;align=left;verticalAlign=top;spacingLeft=4;spacingRight=4;overflow=hidden;rotatable=0;points=[[0,0.5],[1,0.5]];portConstraint=eastwest;fontColor=default;" vertex="1" parent="auTtCLH2IPiy61heuWF4-68">
          <mxGeometry y="26" width="140" height="64" as="geometry" />
        </mxCell>
        <mxCell id="auTtCLH2IPiy61heuWF4-70" value="Aggregation" style="text;strokeColor=none;fillColor=none;html=1;fontSize=24;fontStyle=1;verticalAlign=middle;align=center;fontColor=default;" vertex="1" parent="WIyWlLk6GJQsqaUBKTNV-1">
          <mxGeometry x="130" y="1480" width="100" height="40" as="geometry" />
        </mxCell>
        <mxCell id="auTtCLH2IPiy61heuWF4-71" value="&lt;span style=&quot;font-family: helvetica; font-size: 24px; font-style: normal; font-weight: 700; letter-spacing: normal; text-align: center; text-indent: 0px; text-transform: none; word-spacing: 0px; background-color: rgb(248, 249, 250); display: inline; float: none;&quot;&gt;Dependency&lt;/span&gt;" style="text;whiteSpace=wrap;html=1;fontColor=default;" vertex="1" parent="WIyWlLk6GJQsqaUBKTNV-1">
          <mxGeometry x="90" y="1070" width="170" height="30" as="geometry" />
        </mxCell>
        <mxCell id="auTtCLH2IPiy61heuWF4-72" value="" style="endArrow=none;html=1;endFill=0;startArrow=diamondThin;startFill=0;edgeStyle=elbowEdgeStyle;elbow=vertical;rounded=0;labelBackgroundColor=default;fontColor=default;strokeColor=default;fillColor=default;exitX=0.593;exitY=1.031;exitDx=0;exitDy=0;exitPerimeter=0;entryX=0.429;entryY=0;entryDx=0;entryDy=0;entryPerimeter=0;" edge="1" parent="WIyWlLk6GJQsqaUBKTNV-1" source="auTtCLH2IPiy61heuWF4-60" target="auTtCLH2IPiy61heuWF4-64">
          <mxGeometry width="100" height="75" relative="1" as="geometry">
            <mxPoint x="270" y="1725" as="sourcePoint" />
            <mxPoint x="270" y="1730" as="targetPoint" />
          </mxGeometry>
        </mxCell>
        <mxCell id="auTtCLH2IPiy61heuWF4-73" value="" style="endArrow=none;html=1;endFill=0;startArrow=diamondThin;startFill=0;edgeStyle=elbowEdgeStyle;elbow=vertical;rounded=0;labelBackgroundColor=default;fontColor=default;strokeColor=default;fillColor=default;exitX=0.6;exitY=1.031;exitDx=0;exitDy=0;exitPerimeter=0;entryX=0.5;entryY=0;entryDx=0;entryDy=0;" edge="1" parent="WIyWlLk6GJQsqaUBKTNV-1" source="auTtCLH2IPiy61heuWF4-60" target="auTtCLH2IPiy61heuWF4-66">
          <mxGeometry width="100" height="75" relative="1" as="geometry">
            <mxPoint x="467.02" y="1651.984" as="sourcePoint" />
            <mxPoint x="450" y="1730" as="targetPoint" />
          </mxGeometry>
        </mxCell>
        <mxCell id="auTtCLH2IPiy61heuWF4-74" value="" style="endArrow=none;html=1;endFill=0;startArrow=diamondThin;startFill=0;edgeStyle=elbowEdgeStyle;elbow=vertical;rounded=0;labelBackgroundColor=default;fontColor=default;strokeColor=default;fillColor=default;entryX=0.429;entryY=0;entryDx=0;entryDy=0;entryPerimeter=0;" edge="1" parent="WIyWlLk6GJQsqaUBKTNV-1">
          <mxGeometry width="100" height="75" relative="1" as="geometry">
            <mxPoint x="460" y="1642" as="sourcePoint" />
            <mxPoint x="620" y="1740" as="targetPoint" />
          </mxGeometry>
        </mxCell>
        <mxCell id="auTtCLH2IPiy61heuWF4-87" value="ECS Cluster" style="swimlane;fontStyle=0;childLayout=stackLayout;horizontal=1;startSize=26;fillColor=none;horizontalStack=0;resizeParent=1;resizeParentMax=0;resizeLast=0;collapsible=1;marginBottom=0;fontColor=default;strokeColor=default;" vertex="1" parent="WIyWlLk6GJQsqaUBKTNV-1">
          <mxGeometry x="394" y="1980" width="140" height="90" as="geometry" />
        </mxCell>
        <mxCell id="auTtCLH2IPiy61heuWF4-88" value="" style="text;strokeColor=default;fillColor=none;align=left;verticalAlign=top;spacingLeft=4;spacingRight=4;overflow=hidden;rotatable=0;points=[[0,0.5],[1,0.5]];portConstraint=eastwest;fontColor=default;" vertex="1" parent="auTtCLH2IPiy61heuWF4-87">
          <mxGeometry y="26" width="140" height="64" as="geometry" />
        </mxCell>
        <mxCell id="auTtCLH2IPiy61heuWF4-89" value="ECR" style="swimlane;fontStyle=0;childLayout=stackLayout;horizontal=1;startSize=26;fillColor=none;horizontalStack=0;resizeParent=1;resizeParentMax=0;resizeLast=0;collapsible=1;marginBottom=0;fontColor=default;strokeColor=default;" vertex="1" parent="WIyWlLk6GJQsqaUBKTNV-1">
          <mxGeometry x="230" y="2170" width="140" height="90" as="geometry" />
        </mxCell>
        <mxCell id="auTtCLH2IPiy61heuWF4-92" value="ASG" style="swimlane;fontStyle=0;childLayout=stackLayout;horizontal=1;startSize=26;fillColor=none;horizontalStack=0;resizeParent=1;resizeParentMax=0;resizeLast=0;collapsible=1;marginBottom=0;fontColor=default;strokeColor=default;" vertex="1" parent="WIyWlLk6GJQsqaUBKTNV-1">
          <mxGeometry x="580" y="2170" width="140" height="90" as="geometry" />
        </mxCell>
        <mxCell id="auTtCLH2IPiy61heuWF4-93" value="" style="text;strokeColor=default;fillColor=none;align=left;verticalAlign=top;spacingLeft=4;spacingRight=4;overflow=hidden;rotatable=0;points=[[0,0.5],[1,0.5]];portConstraint=eastwest;fontColor=default;" vertex="1" parent="auTtCLH2IPiy61heuWF4-92">
          <mxGeometry y="26" width="140" height="64" as="geometry" />
        </mxCell>
        <mxCell id="auTtCLH2IPiy61heuWF4-98" value="Composition" style="text;strokeColor=none;fillColor=none;html=1;fontSize=24;fontStyle=1;verticalAlign=middle;align=center;fontColor=default;" vertex="1" parent="WIyWlLk6GJQsqaUBKTNV-1">
          <mxGeometry x="140" y="1920" width="100" height="40" as="geometry" />
        </mxCell>
        <mxCell id="auTtCLH2IPiy61heuWF4-99" value="" style="endArrow=none;html=1;endFill=0;startArrow=diamondThin;startFill=1;edgeStyle=elbowEdgeStyle;elbow=vertical;rounded=0;labelBackgroundColor=default;fontColor=default;strokeColor=default;fillColor=default;exitX=0.671;exitY=1.031;exitDx=0;exitDy=0;exitPerimeter=0;entryX=0.5;entryY=0;entryDx=0;entryDy=0;" edge="1" parent="WIyWlLk6GJQsqaUBKTNV-1" source="auTtCLH2IPiy61heuWF4-88" target="auTtCLH2IPiy61heuWF4-92">
          <mxGeometry width="100" height="75" relative="1" as="geometry">
            <mxPoint x="580" y="2165" as="sourcePoint" />
            <mxPoint x="680" y="2090" as="targetPoint" />
          </mxGeometry>
        </mxCell>
        <mxCell id="auTtCLH2IPiy61heuWF4-100" value="" style="endArrow=none;html=1;endFill=0;startArrow=diamondThin;startFill=1;edgeStyle=elbowEdgeStyle;elbow=vertical;rounded=0;labelBackgroundColor=default;fontColor=default;strokeColor=default;fillColor=default;entryX=0.421;entryY=-0.022;entryDx=0;entryDy=0;entryPerimeter=0;exitX=0.414;exitY=1;exitDx=0;exitDy=0;exitPerimeter=0;" edge="1" parent="WIyWlLk6GJQsqaUBKTNV-1" source="auTtCLH2IPiy61heuWF4-88" target="auTtCLH2IPiy61heuWF4-89">
          <mxGeometry width="100" height="75" relative="1" as="geometry">
            <mxPoint x="450" y="2080" as="sourcePoint" />
            <mxPoint x="380" y="2110" as="targetPoint" />
          </mxGeometry>
        </mxCell>
      </root>
    </mxGraphModel>
  </diagram>
</mxfile>
